<?xml version="1.0" standalone="no"?>
<!DOCTYPE svg PUBLIC "-//W3C//DTD SVG 20010904//EN"
 "http://www.w3.org/TR/2001/REC-SVG-20010904/DTD/svg10.dtd">
<svg version="1.0" xmlns="http://www.w3.org/2000/svg"
 width="75.000000pt" height="75.000000pt" viewBox="0 0 75.000000 75.000000"
 preserveAspectRatio="xMidYMid meet">

<g transform="translate(0.000000,75.000000) scale(0.100000,-0.100000)"
fill="#000000" stroke="none">
<path d="M34 728 c-4 -6 -2 -14 4 -16 6 -2 23 -13 37 -24 21 -16 24 -23 13
-29 -9 -6 -7 -9 8 -9 11 0 34 -12 50 -26 l29 -26 -47 4 -47 3 23 -29 c12 -16
33 -36 47 -44 13 -9 8 -2 -11 15 -19 17 -32 34 -28 38 12 13 83 -10 80 -26 -2
-8 0 -11 4 -7 4 4 14 2 22 -5 13 -10 14 -9 3 12 -7 13 -21 26 -32 28 -10 3
-17 9 -14 12 4 8 -59 72 -106 107 -16 11 -26 24 -22 27 3 4 4 7 0 7 -3 0 -9
-5 -13 -12z"/>
<path d="M704 733 c4 -7 3 -13 -3 -13 -6 0 -49 -38 -97 -85 -68 -66 -85 -87
-76 -98 18 -22 72 -12 101 19 l26 27 -31 -25 c-24 -18 -40 -24 -63 -20 -30 4
-31 5 -15 23 10 11 37 21 66 25 60 8 72 21 15 15 -39 -3 -41 -3 -27 15 22 28
32 34 60 35 22 0 22 1 6 8 -18 7 -17 9 8 28 15 12 32 24 39 26 9 3 8 8 -2 18
-9 9 -11 9 -7 2z"/>
<path d="M544 674 l-39 -35 36 25 c20 14 38 24 41 21 2 -3 5 2 5 10 0 8 -1 15
-2 15 -1 0 -19 -16 -41 -36z"/>
<path d="M215 660 c47 -55 48 -56 37 -35 -6 11 -23 31 -39 45 l-28 25 30 -35z"/>
<path d="M160 645 c13 -14 26 -25 28 -25 3 0 -5 11 -18 25 -13 14 -26 25 -28
25 -3 0 5 -11 18 -25z"/>
<path d="M579 643 l-24 -28 28 24 c15 14 27 26 27 28 0 8 -8 1 -31 -24z"/>
<path d="M490 609 c-7 -11 -10 -23 -7 -25 2 -2 9 7 15 21 14 30 7 33 -8 4z"/>
<path d="M529 593 c-13 -16 -12 -17 4 -4 9 7 17 15 17 17 0 8 -8 3 -21 -13z"/>
<path d="M270 549 c0 -13 4 -28 8 -34 4 -5 51 -10 105 -10 l97 0 -1 30 c0 26
-1 27 -8 10 -8 -18 -17 -20 -96 -20 -77 1 -89 3 -91 19 -4 28 -14 32 -14 5z"/>
<path d="M230 526 c0 -2 8 -10 18 -17 15 -13 16 -12 3 4 -13 16 -21 21 -21 13z"/>
<path d="M496 508 c-21 -30 -20 -41 4 -33 32 10 56 -11 91 -82 21 -44 34 -62
37 -50 2 9 -6 33 -18 52 -12 19 -19 39 -15 45 3 5 1 10 -4 10 -6 0 -11 8 -11
18 1 13 6 10 26 -13 l25 -30 -12 28 c-7 15 -16 27 -20 27 -4 0 -15 8 -24 17
-14 14 -22 15 -46 6 -30 -12 -37 -5 -17 15 7 7 9 12 6 12 -4 0 -14 -10 -22
-22z"/>
<path d="M195 499 c11 -13 13 -18 5 -12 -12 9 -21 8 -40 -4 -14 -8 -17 -12 -6
-9 16 5 17 2 11 -21 -3 -15 -15 -47 -26 -71 -11 -24 -18 -49 -16 -55 2 -7 10
5 17 26 8 20 17 37 21 37 4 0 10 11 13 25 9 36 46 67 73 60 37 -9 26 10 -14
25 -21 8 -42 17 -48 19 -5 2 -1 -7 10 -20z"/>
<path d="M79 373 c-13 -16 -12 -17 4 -4 9 7 17 15 17 17 0 8 -8 3 -21 -13z"/>
<path d="M650 386 c0 -2 8 -10 18 -17 15 -13 16 -12 3 4 -13 16 -21 21 -21 13z"/>
<path d="M504 348 l-29 -33 35 30 c19 17 37 31 39 33 2 1 0 2 -5 2 -6 0 -23
-15 -40 -32z"/>
<path d="M198 359 c-18 -10 -24 -52 -12 -83 12 -32 22 -15 11 19 -9 30 -8 39
6 52 15 15 18 15 43 -10 35 -35 39 -88 7 -93 -17 -3 -21 0 -16 13 4 11 3 14
-5 9 -20 -12 -13 -36 11 -36 39 0 50 14 43 53 -6 33 -46 87 -63 87 -4 0 -16
-5 -25 -11z"/>
<path d="M552 328 c1 -43 -20 -87 -33 -67 -7 11 -9 11 -9 -3 0 -11 -6 -15 -21
-11 -17 5 -20 11 -15 37 4 22 3 27 -4 16 -22 -34 -6 -100 24 -100 5 0 1 7 -10
15 -18 14 -17 14 14 15 26 0 36 7 52 33 21 34 26 82 10 92 -5 3 -9 -8 -8 -27z"/>
<path d="M51 274 c0 -11 3 -14 6 -6 3 7 2 16 -1 19 -3 4 -6 -2 -5 -13z"/>
<path d="M691 274 c0 -11 3 -14 6 -6 3 7 2 16 -1 19 -3 4 -6 -2 -5 -13z"/>
<path d="M124 241 c12 -79 61 -122 154 -137 23 -4 42 -10 42 -14 0 -4 25 -7
55 -7 30 0 55 3 55 6 0 4 27 13 60 19 71 15 115 49 130 100 13 46 13 75 0 67
-5 -3 -7 -12 -3 -21 3 -8 2 -14 -3 -13 -21 4 -26 -2 -14 -16 11 -13 10 -21 -7
-43 -43 -59 -169 -88 -288 -68 -110 19 -165 58 -152 107 3 10 0 17 -7 16 -6
-1 -11 6 -11 15 0 9 -4 20 -9 25 -5 4 -6 -11 -2 -36z"/>
<path d="M184 216 c11 -9 24 -16 30 -16 12 0 7 5 -24 19 -24 11 -24 11 -6 -3z"/>
<path d="M266 215 c-11 -8 -15 -15 -9 -15 6 0 16 7 23 15 16 19 11 19 -14 0z"/>
<path d="M90 143 c0 -23 12 -43 46 -79 26 -27 42 -39 35 -27 -6 12 -18 26 -27
31 -11 6 -14 16 -9 31 8 26 17 27 40 1 10 -11 26 -20 35 -20 10 0 23 -7 30
-15 7 -8 22 -15 34 -15 41 0 67 -12 62 -27 -4 -9 -1 -13 6 -10 7 2 12 11 10
19 -1 11 6 16 23 16 17 0 24 -5 23 -16 -2 -8 3 -17 10 -19 7 -3 10 1 6 11 -4
11 4 16 33 21 57 10 73 15 73 26 0 5 8 9 18 9 10 0 29 10 41 21 19 18 25 19
32 8 5 -8 7 -23 5 -34 -4 -15 1 -13 19 10 14 17 25 43 25 59 0 28 -1 28 -18
13 -10 -10 -24 -17 -30 -17 -6 0 -22 -11 -36 -25 -14 -14 -34 -25 -44 -25 -11
0 -22 -6 -25 -14 -8 -21 -256 -21 -264 0 -3 8 -14 14 -25 14 -10 0 -30 11 -44
25 -14 14 -30 25 -36 25 -6 0 -20 7 -30 17 -17 15 -18 15 -18 -14z m17 -25
c-3 -8 -6 -5 -6 6 -1 11 2 17 5 13 3 -3 4 -12 1 -19z"/>
</g>
</svg>
