<?xml version="1.0" encoding="utf-8"?>
<!-- Generator: Adobe Illustrator 16.0.0, SVG Export Plug-In . SVG Version: 6.00 Build 0)  -->
<!DOCTYPE svg PUBLIC "-//W3C//DTD SVG 1.1//EN" "http://www.w3.org/Graphics/SVG/1.1/DTD/svg11.dtd">
<svg version="1.1"
	 id="svg2" xmlns:dc="http://purl.org/dc/elements/1.1/" xmlns:cc="http://creativecommons.org/ns#" xmlns:rdf="http://www.w3.org/1999/02/22-rdf-syntax-ns#" xmlns:svg="http://www.w3.org/2000/svg" xmlns:sodipodi="http://sodipodi.sourceforge.net/DTD/sodipodi-0.dtd" xmlns:inkscape="http://www.inkscape.org/namespaces/inkscape" sodipodi:docname="logoBK-3.svg" inkscape:version="0.48.4 r9939"
	 xmlns="http://www.w3.org/2000/svg" xmlns:xlink="http://www.w3.org/1999/xlink" x="0px" y="0px" width="429.547px"
	 height="267.364px" viewBox="102 456.617 429.547 267.364" enable-background="new 102 456.617 429.547 267.364"
	 xml:space="preserve">
<sodipodi:namedview  showguides="true" showgrid="true" inkscape:cy="488.69287" inkscape:cx="308.03525" inkscape:zoom="1.56" borderopacity="1.0" bordercolor="#666666" pagecolor="#ffffff" id="base" inkscape:snap-global="false" inkscape:guide-bbox="true" inkscape:window-maximized="0" inkscape:window-y="87" inkscape:current-layer="layer1" inkscape:document-units="px" inkscape:pageopacity="0.0" inkscape:window-x="566" inkscape:window-height="702" inkscape:pageshadow="2" inkscape:window-width="1052">
	<inkscape:grid  type="xygrid" id="grid3794"></inkscape:grid>
</sodipodi:namedview>
<g id="layer1" inkscape:label="Layer 1" inkscape:groupmode="layer">
	<path id="path3400" d="M193.3,719.144c-4.687-4.471-5.154-5.307-4.871-8.715c0.373-4.484-0.114-4.266,23.313-10.4
		c38.912-10.186,68.583-21.965,76.23-30.262c5.039-5.467,5.72-7.771,4.962-16.809c-0.676-8.061-7.19-23.422-14.152-33.369
		c-2.31-3.299-5.363-8.025-6.787-10.5s-4.426-6.279-6.671-8.453s-4.082-4.756-4.082-5.738s2.138-4.188,4.75-7.121
		c2.612-2.936,8.829-10.027,13.813-15.762c16.233-18.674,22.218-31.596,19.43-41.953c-1.382-5.128-9.386-13.997-15.979-17.702
		c-2.483-1.395-6.314-3.746-8.515-5.226c-3.413-2.295-32.408-16.475-45-22.007c-7.906-3.474-19.032-8.576-22.978-10.538
		c-7.054-3.508-5.751-8.586,3.834-14.948c3.642-2.417,6.008-3.366,7.271-2.917c1.029,0.367,17.173,8.24,35.872,17.496
		c24.967,12.357,36.997,18.92,45.279,24.701c6.203,4.331,12.402,8.929,13.775,10.219c3.854,3.62,7.489,10.814,8.948,17.707
		c1.182,5.58,1.116,7.256-0.596,15.438c-1.057,5.049-2.695,10.332-3.641,11.742s-2.804,4.588-4.13,7.062s-3.925,6.189-5.774,8.254
		c-1.849,2.062-3.362,4.201-3.362,4.748c0,0.549-4.05,5.248-9,10.445c-4.95,5.195-9,9.85-9,10.342s2.44,4.453,5.422,8.803
		c14.949,21.803,22.991,38.5,24.224,50.287c0.681,6.514-0.804,14.408-3.85,20.467c-4.764,9.475-18.583,18.787-38.93,26.236
		c-22.664,8.295-38.251,13.561-50.366,17.012c-6.6,1.879-13.696,4.09-15.77,4.912C200.885,725.009,198.932,724.515,193.3,719.144
		L193.3,719.144z"/>
	<path id="path3398" d="M205.973,721.595c2.073-0.822,9.17-3.027,15.77-4.902c11.057-3.139,27.755-8.812,52.973-17.998
		c18.526-6.75,30.793-15.178,36.019-24.75c4.085-7.48,4.743-20.275,1.537-29.855c-3.586-10.711-8.439-19.912-17.975-34.072
		c-4.973-7.385-9.044-14.215-9.048-15.176c-0.003-0.963,4.044-6.002,8.994-11.197c4.95-5.197,9-9.92,9-10.498
		s1.505-2.74,3.345-4.803c6.037-6.775,11.359-17.217,13.142-25.779c2.028-9.752,1.379-16.986-2.167-24.139
		c-3.172-6.399-7.41-10.483-18.319-17.652c-4.675-3.072-9.711-6.52-11.19-7.661c-3.515-2.711-69.183-35.021-71.178-35.021
		c-2.191,0-10.43,5.763-12.283,8.591c-0.862,1.316-1.312,3.062-0.998,3.881c0.554,1.44,12.333,7.408,25.649,12.993
		c10.946,4.591,42.319,19.812,45.5,22.074c1.65,1.173,5.193,3.384,7.875,4.912c6.49,3.7,12.333,9.062,15.793,14.494
		c5.016,7.875,3.493,17.55-4.96,31.513c-3.354,5.541-6.81,9.738-24.958,30.314c-3.438,3.896-6.25,7.408-6.25,7.803
		s1.938,2.789,4.306,5.32c2.369,2.531,6.021,7.529,8.115,11.104c2.095,3.576,5.051,8.076,6.569,10
		c4.212,5.34,11.739,22.684,13.117,30.221c2.349,12.857-2.812,20.621-18.812,28.301c-17.039,8.18-50.154,19.006-80.927,26.457
		c-4.521,1.094-5.368,1.834-5.368,4.68c0,2.803,8.878,12.342,11.485,12.342C201.538,723.089,203.899,722.417,205.973,721.595
		L205.973,721.595z"/>
	<path id="path3396" fill="#10105C" stroke="#10105C" stroke-width="3.5" d="M195.637,718.322c-2.258-2.062-4.433-4.779-4.833-6.037
		c-0.848-2.672,0.838-5.195,3.47-5.195c1.958,0,25.511-6.42,38.969-10.623c29.635-9.252,49.225-17.668,55.319-23.764
		c4.787-4.785,7.689-10.604,7.646-15.322c-0.087-9.215-7.124-26.945-15.363-38.709c-2.343-3.344-5.507-8.264-7.03-10.93
		s-4.576-6.6-6.784-8.742l-4.014-3.896l7.363-8.617c4.05-4.738,9.325-10.93,11.724-13.756c2.397-2.828,4.945-5.479,5.663-5.891
		c1.729-0.996,9.928-15.283,12.465-21.719c2.391-6.064,2.602-13.986,0.491-18.432c-2.479-5.228-10.453-12.807-18.989-18.052
		c-8.313-5.109-39.562-20.869-49.99-25.213c-3.3-1.375-8.925-3.87-12.5-5.547c-3.575-1.676-8.412-3.873-10.75-4.882
		c-4.428-1.911-4.915-2.794-3.254-5.897c1.231-2.301,9.542-8.008,11.661-8.008c0.856,0,4.547,1.559,8.2,3.463
		c3.653,1.905,18.177,9.057,32.274,15.893c24.522,11.891,40.476,21.447,52.552,31.48c5.995,4.981,9.635,13.506,9.672,22.654
		c0.031,7.838-1.885,16.732-4.421,20.51c-0.923,1.375-2.879,4.885-4.347,7.797c-1.468,2.914-3.345,5.557-4.171,5.873
		c-0.826,0.318-2.391,2.318-3.476,4.445c-1.086,2.129-5.792,7.773-10.458,12.547c-5.713,5.844-8.483,9.434-8.483,10.996
		c0,1.275,3.284,7.162,7.299,13.082c10.271,15.145,13.901,21.52,17.8,31.26c3.075,7.686,3.401,9.459,3.401,18.5
		c0,8.127-0.403,10.873-2.152,14.656c-5.998,12.977-20.419,20.639-70.848,37.648c-7.84,2.645-34.263,10.742-38.5,11.801
		C200.417,721.9,197.895,720.382,195.637,718.322L195.637,718.322z"/>
	<path id="path3288" d="M207.684,686.669c-1.898-1.391-1.618-3.361,12.763-89.73c11.626-69.828,15.055-88.565,16.381-89.536
		c2.466-1.802,11.772-3.514,14.875-2.734c1.602,0.402,3.081,1.713,3.664,3.247c0.755,1.985-2.258,21.992-13.195,87.623
		c-7.796,46.779-14.534,86-14.973,87.16c-0.592,1.562-2.493,2.533-7.333,3.75c-7.991,2.008-9.698,2.037-12.182,0.219V686.669z"/>
	<path id="path3286" d="M220.626,684.921c2.265-0.643,4.434-1.434,4.822-1.756c1.123-0.934,28.917-169.195,28.59-173.076l-0.296-3.5
		l-6.621,0.146c-11.254,0.249-8.637-9.116-25.151,89.975c-8.043,48.256-14.395,88.107-14.116,88.559
		C208.595,686.468,215.874,686.271,220.626,684.921z"/>
	<path id="path3284" fill="#10105C" stroke="#10105C" stroke-width="3.5" stroke-miterlimit="1" d="M208.913,684.339
		c-0.861-1.443,28.389-173.726,29.723-175.065c0.763-0.767,3.98-1.393,7.708-1.5c6.146-0.178,6.41-0.085,6.692,2.327
		c0.355,3.045-27.588,171.232-28.588,172.064C221.939,684.253,209.869,685.943,208.913,684.339L208.913,684.339z"/>
	<path id="path3188" d="M431.242,648.507c-1.375-0.764-4.38-1.395-6.679-1.402c-4.75-0.018-5.685-0.754-10.363-8.174
		c-1.853-2.938-5.511-7.723-8.128-10.635c-2.618-2.91-6.464-8.012-8.545-11.336c-2.082-3.326-8.06-12.064-13.285-19.422
		c-26.204-36.896-30.386-53.191-18.027-70.252c6.486-8.955,27.475-22.256,43.634-27.655c2.691-0.899,8.629-3.032,13.193-4.74
		l8.3-3.104l2.85,2.106c1.567,1.159,4.031,2.404,5.474,2.766c3.24,0.813,5.577,3.995,5.577,7.594c0,3.246-0.018,3.259-9.793,6.802
		c-35.752,12.96-49.404,21.951-53.355,35.136c-0.921,3.076-0.754,4.861,0.996,10.621c1.157,3.811,3.14,8.467,4.406,10.352
		s3.49,5.451,4.941,7.926c3.258,5.559,17.157,24.637,29.805,40.914c14.658,18.865,20,26.42,20,28.293
		c0,2.348-3.92,5.814-6.438,5.695C434.67,649.937,432.617,649.269,431.242,648.507L431.242,648.507z"/>
	<path id="path3186" d="M438.778,647.474c1.355-0.889,2.465-2.141,2.465-2.781c0-1.445-6.558-10.656-19-26.689
		c-30.724-39.594-41.998-57.84-41.999-67.967c-0.001-5.309,4.497-13.35,10.34-18.484c6.837-6.01,23.021-13.942,43.866-21.498
		c4.238-1.536,8.176-3.083,8.75-3.438c2.618-1.618-0.524-8.526-3.879-8.526c-0.994,0-3.014-0.948-4.487-2.107
		c-3.284-2.584-4.681-2.375-19.091,2.857c-16.51,5.994-30.053,12.899-39.204,19.989c-7.07,5.477-8.695,7.336-11.75,13.442
		c-3.027,6.053-3.546,8.09-3.546,13.949c0,7.967,2.491,16.061,7.764,25.227c1.944,3.379,4.677,8.168,6.074,10.643
		s5.129,7.926,8.292,12.113c3.164,4.188,8.772,12.268,12.464,17.957c3.691,5.688,8.611,12.387,10.934,14.887
		c2.321,2.498,5.834,7.08,7.806,10.18c5.146,8.094,6.134,8.859,11.488,8.895c2.573,0.018,5.553,0.693,6.62,1.5
		C435.133,649.474,435.749,649.458,438.778,647.474L438.778,647.474z"/>
	<path id="path3184" fill="#10105C" stroke="#10105C" stroke-width="3.5" d="M433.062,646.525
		c-2.201-1.172-5.979-1.916-12.075-2.377c-0.417-0.033-2.82-3.277-5.343-7.213c-2.522-3.934-6.058-8.547-7.855-10.25
		c-1.799-1.703-6.189-7.613-9.757-13.137c-3.567-5.521-9.817-14.596-13.888-20.166c-14.865-20.336-21.139-33.604-21.651-45.793
		c-0.312-7.408-0.093-8.479,2.957-14.473c2.661-5.23,4.824-7.698,11.273-12.857c9.254-7.401,23.245-14.708,38.954-20.343
		c14.789-5.304,15.911-5.481,18.467-2.926c1.154,1.154,3.208,2.099,4.563,2.099c1.413,0,2.906,0.825,3.5,1.935
		c2.062,3.851,1.229,4.925-5.404,6.974c-3.541,1.094-8.154,2.852-10.25,3.905s-5.61,2.492-7.811,3.196
		c-7.69,2.461-20.09,8.905-26.564,13.806c-7.636,5.781-12.936,14.336-12.936,20.885c0,11.025,9.226,25.848,46.541,74.777
		c7.96,10.438,14.333,19.4,14.161,19.914c-0.171,0.516-1.188,1.506-2.257,2.203C436.1,647.718,435.25,647.689,433.062,646.525
		L433.062,646.525z"/>
	<path id="path3182" d="M319.992,647.009c-0.991-0.578-1.742-2.189-1.733-3.719c0.03-4.992,28.685-174.301,29.665-175.282
		c1.919-1.92,12.141-4.175,15.805-3.488c6.239,1.171,6.23,1.808-0.533,40.924c-3.343,19.33-8.772,50.895-12.067,70.145
		c-3.294,19.25-7.25,42.336-8.79,51.303s-3.252,16.754-3.805,17.307c-1.102,1.102-11.601,3.816-14.791,3.824
		C322.643,648.027,320.955,647.57,319.992,647.009L319.992,647.009z"/>
	<path id="path3180" d="M332.817,644.966c2.453-0.617,4.657-1.441,4.897-1.83c0.445-0.721,2.088-10.037,12.521-71.047
		c3.245-18.975,8.423-49.081,11.506-66.902c3.084-17.82,5.471-33.796,5.305-35.5c-0.263-2.689-0.764-3.171-3.803-3.648
		c-3.259-0.513-12.61,1.395-14.205,2.897c-1.026,0.966-29.934,175.12-29.251,176.223
		C320.572,646.431,327.406,646.33,332.817,644.966z"/>
	<path id="path3162" fill="#10105C" stroke="#10105C" stroke-width="3.5" d="M320.913,644.339
		c-0.44-0.736,27.728-171.239,28.714-173.809c1.197-3.119,15.193-4.705,16.29-1.847c0.646,1.684,0.48,2.718-13.725,85.906
		c-14.497,84.9-14.835,86.789-15.661,87.525C333.912,644.447,321.99,646.144,320.913,644.339L320.913,644.339z"/>
	<text transform="matrix(1 0 0 1 102.0002 680.3628)" fill="#FF0000" font-family="'Arial-BoldMT'" font-size="40">brain</text>
	<text transform="matrix(1 0 0 1 235.179 671.6704)" fill="#FF0000" font-family="'Arial-BoldMT'" font-size="24">a</text>
	<text transform="matrix(1 0 0 1 248.5266 671.6704)" fill="#FF0000" font-family="'Arial-BoldMT'" font-size="24">n</text>
	<text transform="matrix(1 0 0 1 263.1868 671.6704)" fill="#FF0000" font-family="'Arial-BoldMT'" font-size="24">d</text>
	<text transform="matrix(1 0 0 1 317.9485 681.2085)" fill="#FF0000" font-family="'Arial-BoldMT'" font-size="40">knowledge</text>
	<text transform="matrix(1.2957 0 0 1 385.5696 712.2095)" fill="#37A0E3" font-family="'Arial-BoldMT'" font-size="22.6604">O</text>
	<text transform="matrix(1.2957 0 0 1 408.4075 712.2095)" fill="#37A0E3" font-family="'Arial-BoldMT'" font-size="18.5404">UR TOOLS</text>
</g>
</svg>
